<mxfile host="app.diagrams.net" agent="Mozilla/5.0 (Macintosh; Intel Mac OS X 10_15_7) AppleWebKit/537.36 (KHTML, like Gecko) Chrome/128.0.0.0 Safari/537.36" version="24.7.8">
  <diagram name="第 1 页" id="11_y3HcGp97wvjAQtWAv">
    <mxGraphModel dx="1434" dy="802" grid="1" gridSize="10" guides="1" tooltips="1" connect="1" arrows="1" fold="1" page="1" pageScale="1" pageWidth="827" pageHeight="1169" math="0" shadow="0">
      <root>
        <mxCell id="0" />
        <mxCell id="1" parent="0" />
        <mxCell id="YhDbZ6NQo_gSV78-wYTo-1" value="RKE" style="rounded=0;whiteSpace=wrap;html=1;verticalAlign=top;" vertex="1" parent="1">
          <mxGeometry x="270" y="380" width="190" height="110" as="geometry" />
        </mxCell>
        <mxCell id="YhDbZ6NQo_gSV78-wYTo-2" value="RKE2" style="rounded=0;whiteSpace=wrap;html=1;verticalAlign=top;" vertex="1" parent="1">
          <mxGeometry x="260" y="160" width="190" height="110" as="geometry" />
        </mxCell>
        <mxCell id="YhDbZ6NQo_gSV78-wYTo-4" value="S3" style="rounded=1;whiteSpace=wrap;html=1;verticalAlign=top;" vertex="1" parent="1">
          <mxGeometry x="560" y="250" width="180" height="120" as="geometry" />
        </mxCell>
        <mxCell id="YhDbZ6NQo_gSV78-wYTo-8" value="velero" style="rounded=0;whiteSpace=wrap;html=1;" vertex="1" parent="1">
          <mxGeometry x="590" y="290" width="120" height="60" as="geometry" />
        </mxCell>
        <mxCell id="YhDbZ6NQo_gSV78-wYTo-10" value="Velero server" style="rounded=0;whiteSpace=wrap;html=1;" vertex="1" parent="1">
          <mxGeometry x="60" y="290" width="120" height="60" as="geometry" />
        </mxCell>
        <mxCell id="YhDbZ6NQo_gSV78-wYTo-11" value="Workload A + Longhorn PVC" style="rounded=1;whiteSpace=wrap;html=1;" vertex="1" parent="1">
          <mxGeometry x="315" y="430" width="100" height="40" as="geometry" />
        </mxCell>
        <mxCell id="YhDbZ6NQo_gSV78-wYTo-12" value="Workload A + Longhorn PVC" style="rounded=1;whiteSpace=wrap;html=1;" vertex="1" parent="1">
          <mxGeometry x="305" y="200" width="100" height="40" as="geometry" />
        </mxCell>
        <mxCell id="YhDbZ6NQo_gSV78-wYTo-13" value="" style="endArrow=classic;html=1;rounded=0;exitX=0.75;exitY=1;exitDx=0;exitDy=0;entryX=0;entryY=0.5;entryDx=0;entryDy=0;" edge="1" parent="1" source="YhDbZ6NQo_gSV78-wYTo-10" target="YhDbZ6NQo_gSV78-wYTo-11">
          <mxGeometry width="50" height="50" relative="1" as="geometry">
            <mxPoint x="200" y="450" as="sourcePoint" />
            <mxPoint x="250" y="400" as="targetPoint" />
          </mxGeometry>
        </mxCell>
        <mxCell id="YhDbZ6NQo_gSV78-wYTo-18" value="backup with CSI snapshot" style="edgeLabel;html=1;align=center;verticalAlign=middle;resizable=0;points=[];fontSize=13;" vertex="1" connectable="0" parent="YhDbZ6NQo_gSV78-wYTo-13">
          <mxGeometry x="-0.2177" y="-1" relative="1" as="geometry">
            <mxPoint x="-34" y="10" as="offset" />
          </mxGeometry>
        </mxCell>
        <mxCell id="YhDbZ6NQo_gSV78-wYTo-14" value="" style="endArrow=classic;html=1;rounded=0;exitX=1;exitY=0.75;exitDx=0;exitDy=0;entryX=0;entryY=0.75;entryDx=0;entryDy=0;" edge="1" parent="1" source="YhDbZ6NQo_gSV78-wYTo-10" target="YhDbZ6NQo_gSV78-wYTo-8">
          <mxGeometry width="50" height="50" relative="1" as="geometry">
            <mxPoint x="330" y="360" as="sourcePoint" />
            <mxPoint x="380" y="310" as="targetPoint" />
          </mxGeometry>
        </mxCell>
        <mxCell id="YhDbZ6NQo_gSV78-wYTo-15" value="upload to S3" style="edgeLabel;html=1;align=center;verticalAlign=middle;resizable=0;points=[];fontSize=13;" vertex="1" connectable="0" parent="YhDbZ6NQo_gSV78-wYTo-14">
          <mxGeometry x="0.1694" relative="1" as="geometry">
            <mxPoint x="-12" y="13" as="offset" />
          </mxGeometry>
        </mxCell>
        <mxCell id="YhDbZ6NQo_gSV78-wYTo-17" value="" style="endArrow=classic;html=1;rounded=0;exitX=0.75;exitY=0;exitDx=0;exitDy=0;entryX=0;entryY=0.5;entryDx=0;entryDy=0;dashed=1;dashPattern=8 8;" edge="1" parent="1" source="YhDbZ6NQo_gSV78-wYTo-10" target="YhDbZ6NQo_gSV78-wYTo-12">
          <mxGeometry width="50" height="50" relative="1" as="geometry">
            <mxPoint x="340" y="350" as="sourcePoint" />
            <mxPoint x="390" y="300" as="targetPoint" />
          </mxGeometry>
        </mxCell>
        <mxCell id="YhDbZ6NQo_gSV78-wYTo-20" value="Restore from S3" style="edgeLabel;html=1;align=center;verticalAlign=middle;resizable=0;points=[];fontSize=13;" vertex="1" connectable="0" parent="YhDbZ6NQo_gSV78-wYTo-17">
          <mxGeometry x="0.0956" y="-3" relative="1" as="geometry">
            <mxPoint x="-36" as="offset" />
          </mxGeometry>
        </mxCell>
        <mxCell id="YhDbZ6NQo_gSV78-wYTo-23" value="" style="endArrow=classic;html=1;rounded=0;exitX=0;exitY=0.25;exitDx=0;exitDy=0;entryX=1;entryY=0.25;entryDx=0;entryDy=0;dashed=1;dashPattern=8 8;" edge="1" parent="1" source="YhDbZ6NQo_gSV78-wYTo-8" target="YhDbZ6NQo_gSV78-wYTo-10">
          <mxGeometry width="50" height="50" relative="1" as="geometry">
            <mxPoint x="530" y="210" as="sourcePoint" />
            <mxPoint x="580" y="160" as="targetPoint" />
          </mxGeometry>
        </mxCell>
        <mxCell id="YhDbZ6NQo_gSV78-wYTo-24" value="Get Backup file" style="edgeLabel;html=1;align=center;verticalAlign=middle;resizable=0;points=[];fontSize=13;" vertex="1" connectable="0" parent="YhDbZ6NQo_gSV78-wYTo-23">
          <mxGeometry x="0.3149" y="-1" relative="1" as="geometry">
            <mxPoint x="51" as="offset" />
          </mxGeometry>
        </mxCell>
      </root>
    </mxGraphModel>
  </diagram>
</mxfile>
